<svg width="64" height="64" viewBox="0 0 64 64" fill="none" xmlns="http://www.w3.org/2000/svg">
<g id="Logo / Culture / Logo-Square">
<path id="Path" fill-rule="evenodd" clip-rule="evenodd" d="M63.9919 32.1104C63.9919 24.5574 64.0136 17.004 63.9852 9.45142C63.9621 3.34485 60.5989 0.0129432 54.4805 0.00805514C39.5438 -0.00305418 24.6068 -0.00216543 9.66966 0.00761077C3.36174 0.0120545 0.00876408 3.40884 0.00565782 9.78648C-0.00188594 24.5961 -0.00188594 39.4061 0.00565782 54.2157C0.00920783 60.5925 3.36352 63.9884 9.67144 63.9924C24.6085 64.0022 39.5456 64.0031 54.4823 63.9919C60.5989 63.9875 63.9617 60.6547 63.9852 54.5468C64.014 47.068 63.9919 39.5892 63.9919 32.1104Z" fill="#FC3C62"/>
<path id="Path 2" fill-rule="evenodd" clip-rule="evenodd" d="M28.895 40.4497C30.4816 41.575 32.1932 41.6791 33.8496 40.5947C35.4711 39.533 36.1809 37.9749 35.9609 36.0311C35.5709 32.584 31.8518 30.8413 28.7979 32.7468C27.717 33.4211 26.6508 33.8583 25.4979 33.3192C24.4661 32.837 24.5207 31.8854 24.5728 30.9764C24.585 30.7644 24.597 30.5547 24.5951 30.3538C24.5738 28.1308 24.5762 25.9079 24.5786 23.685C24.58 22.3545 24.5815 21.0239 24.5778 19.6934C24.5752 18.6557 24.5646 17.6033 23.9241 16.7102C22.9219 15.3118 21.5743 14.6917 19.8918 15.1481C17.8874 15.6912 17.0932 17.2253 17.0716 19.1646C17.0385 22.0611 17.0438 24.9582 17.049 27.8555C17.0514 29.1781 17.0538 30.5008 17.0526 31.8234C17.0526 32.3745 17.049 32.9257 17.0453 33.4769C17.0373 34.7027 17.0293 35.9285 17.061 37.1533C17.0864 38.1438 17.0611 39.1364 17.0358 40.1289C16.9855 42.0982 16.9353 44.0669 17.2818 46.0167C17.6202 47.9236 18.8507 49.008 20.8221 49C22.7837 48.9919 23.9851 47.8969 24.3729 46.0118C24.5118 45.3366 24.5323 44.6373 24.5529 43.9376C24.5629 43.5979 24.5729 43.2581 24.5964 42.921C24.6147 42.6595 24.6074 42.3882 24.6002 42.1161C24.5756 41.1975 24.5509 40.2705 25.5067 39.6882C26.7586 38.9249 27.7412 39.6263 28.7442 40.3422C28.7944 40.3781 28.8447 40.414 28.895 40.4497ZM43.3315 48.9984C45.5766 49.0577 46.9722 47.4515 46.9877 44.7C46.9996 42.5851 47.0009 40.4706 46.9996 38.3557C46.999 37.4848 46.998 36.614 46.9969 35.7432C46.9954 34.4993 46.9938 33.2554 46.9938 32.0114C46.9938 30.7427 46.9953 29.4739 46.9967 28.205C46.9977 27.3592 46.9986 26.5134 46.9991 25.6676C47.0005 23.5527 46.9991 21.4378 46.9881 19.3234C46.9735 16.5135 45.6543 14.9714 43.3656 15.0004C41.1767 15.0285 39.9097 16.5429 39.858 19.2052C39.8562 19.2951 39.8542 19.385 39.8522 19.4749C39.8396 20.0533 39.827 20.6327 39.861 21.2087C39.9547 22.8078 39.2609 23.5255 37.647 23.4778C36.2048 23.4353 34.7609 23.4452 33.3171 23.455C32.7009 23.4592 32.0847 23.4634 31.4687 23.4636C29.6885 23.464 28.8127 23.464 28.3876 23.9017C27.961 24.3409 27.9883 25.221 28.0106 26.9845C28.0309 28.6024 28.5904 29.0544 30.1522 28.7811C36.2403 27.7148 39.641 30.506 39.8332 36.712C39.8824 38.3021 39.8727 39.894 39.8629 41.4861C39.8563 42.5659 39.8497 43.6458 39.8615 44.7254C39.8911 47.3654 41.1948 48.9418 43.3315 48.9984Z" fill="white"/>
</g>
</svg>
