<svg width="24" height="24" viewBox="0 0 24 24" fill="none" xmlns="http://www.w3.org/2000/svg">
<path fill-rule="evenodd" clip-rule="evenodd" d="M18.2881 4.79861H14.5245C14.1558 3.75541 13.1666 3 11.993 3C10.8194 3 9.83014 3.75541 9.46146 4.79861H5.6979C4.70419 4.79861 3.89929 5.60347 3.89929 6.59722V19.1874C3.89929 20.1811 4.70415 20.986 5.6979 20.986H18.2881C19.2818 20.986 20.0867 20.1811 20.0867 19.1874V6.59718C20.0866 5.60347 19.2818 4.79861 18.2881 4.79861ZM11.993 4.79861C12.4876 4.79861 12.8923 5.19878 12.8923 5.69789C12.8923 6.197 12.4876 6.59718 11.993 6.59718C11.4984 6.59718 11.0937 6.197 11.0937 5.69789C11.0937 5.19878 11.4984 4.79861 11.993 4.79861ZM6.59718 13.7916L10.1944 17.3887L17.3888 10.1944L16.1163 8.92187L10.1944 14.8437L7.8697 12.519L6.59718 13.7916Z" fill="#B7BDC9"/>
</svg>
