<svg width="24" height="24" viewBox="0 0 24 24" fill="none" xmlns="http://www.w3.org/2000/svg">
<path fill-rule="evenodd" clip-rule="evenodd" d="M5.89844 14.025C5.29687 14.025 4.78841 13.8245 4.37305 13.4234C3.95768 13.0224 3.75 12.5354 3.75 11.9625C3.75 11.3896 3.95768 10.9026 4.37305 10.5016C4.78841 10.1005 5.29687 9.89999 5.89844 9.89999C6.5 9.89999 7.00846 10.1005 7.42383 10.5016C7.83919 10.9026 8.04688 11.3896 8.04688 11.9625C8.04688 12.5354 7.83919 13.0224 7.42383 13.4234C7.00846 13.8245 6.5 14.025 5.89844 14.025ZM12 14.025C11.3984 14.025 10.89 13.8245 10.4746 13.4234C10.0592 13.0224 9.85156 12.5354 9.85156 11.9625C9.85156 11.3896 10.0592 10.9026 10.4746 10.5016C10.89 10.1005 11.3984 9.89999 12 9.89999C12.6016 9.89999 13.11 10.1005 13.5254 10.5016C13.9408 10.9026 14.1484 11.3896 14.1484 11.9625C14.1484 12.5354 13.9408 13.0224 13.5254 13.4234C13.11 13.8245 12.6016 14.025 12 14.025ZM18.1016 14.025C17.5 14.025 16.9915 13.8245 16.5762 13.4234C16.1608 13.0224 15.9531 12.5354 15.9531 11.9625C15.9531 11.3896 16.1608 10.9026 16.5762 10.5016C16.9915 10.1005 17.5 9.89999 18.1016 9.89999C18.7031 9.89999 19.2116 10.1005 19.627 10.5016C20.0423 10.9026 20.25 11.3896 20.25 11.9625C20.25 12.5354 20.0423 13.0224 19.627 13.4234C19.2116 13.8245 18.7031 14.025 18.1016 14.025Z" fill="#B7BDC9"/>
</svg>
