<svg width="24" height="24" viewBox="0 0 24 24" fill="none" xmlns="http://www.w3.org/2000/svg">
<path d="M12 4.8C12.8487 4.8 13.6626 5.13714 14.2627 5.73726C14.8629 6.33737 15.2 7.15131 15.2 8C15.2 8.584 15.048 9.128 14.768 9.6H16.8C17.56 9.6 18.2 10.136 18.36 10.848C19.968 17.256 20 17.424 20 17.6C20 18.0243 19.8314 18.4313 19.5314 18.7314C19.2313 19.0314 18.8243 19.2 18.4 19.2H5.6C5.17565 19.2 4.76869 19.0314 4.46863 18.7314C4.16857 18.4313 4 18.0243 4 17.6C4 17.424 4.032 17.256 5.64 10.848C5.8 10.136 6.44 9.6 7.2 9.6H9.232C8.94602 9.11552 8.79673 8.56258 8.8 8C8.8 7.15131 9.13714 6.33737 9.73726 5.73726C10.3374 5.13714 11.1513 4.8 12 4.8ZM12 6.4C11.5757 6.4 11.1687 6.56857 10.8686 6.86863C10.5686 7.16869 10.4 7.57565 10.4 8C10.4 8.42435 10.5686 8.83131 10.8686 9.13137C11.1687 9.43143 11.5757 9.6 12 9.6C12.4243 9.6 12.8313 9.43143 13.1314 9.13137C13.4314 8.83131 13.6 8.42435 13.6 8C13.6 7.57565 13.4314 7.16869 13.1314 6.86863C12.8313 6.56857 12.4243 6.4 12 6.4Z" fill="#B7BDC9"/>
</svg>
